<?xml version="1.0" encoding="UTF-8"?>
<svg id="Camada_1" data-name="Camada 1" xmlns="http://www.w3.org/2000/svg" viewBox="0 0 13.95 13.95">
  <path d="M10.46,1.31c1.2,0,2.18,.98,2.18,2.18v6.97c0,1.2-.98,2.18-2.18,2.18H3.49c-1.2,0-2.18-.98-2.18-2.18V3.49c0-1.2,.98-2.18,2.18-2.18h6.97m0-1.31H3.49C1.56,0,0,1.56,0,3.49v6.97c0,1.93,1.56,3.49,3.49,3.49h6.97c1.93,0,3.49-1.56,3.49-3.49V3.49c0-1.93-1.56-3.49-3.49-3.49Z"/>
  <path d="M4.36,8.72v-3.49c0-.48,.39-.87,.87-.87h3.49c.48,0,.87,.39,.87,.87v3.49c0,.48-.39,.87-.87,.87h-3.49c-.48,0-.87-.39-.87-.87Z"/>
</svg>